# xmcd CD database file
#
# Track frame offsets:
#	150
#	18802
#	39963
#	62224
#	81773
#	106670
#	128025
#	148525
#	170076
#	188251
#	209241
#	229044
#	254254
#
# Disc length: 3441 seconds
#
# Revision: 1
# Processed by: cddbd v1.5.2PL0 Copyright (c) Steve Scherf et al.
# Submitted via: CDex 1.70beta2
#
DISCID=a70d6f0d
DTITLE=Courtney Fadlin - Hymnology
DYEAR=2006
DGENRE=Jazz
TTITLE0=Quiet Place
TTITLE1=Garden
TTITLE2=Let All Mortal Flesh
TTITLE3=Just A Closer Walk
TTITLE4=I Must Tell Jesus
TTITLE5=He Touched Me
TTITLE6=Redeemed
TTITLE7=I Need Thee Every Hour
TTITLE8=I Want Jesus
TTITLE9=Trust and Obey
TTITLE10=Savior Like A Shepherd
TTITLE11=Softly The Savior
TTITLE12=Reprise
EXTD=YEAR: 2006
EXTT0=
EXTT1=
EXTT2=
EXTT3=
EXTT4=
EXTT5=
EXTT6=
EXTT7=
EXTT8=
EXTT9=
EXTT10=
EXTT11=
EXTT12=
PLAYORDER=
